<?xml version="1.0" encoding="utf-8"?>
<!-- Generator: Adobe Illustrator 16.0.0, SVG Export Plug-In . SVG Version: 6.00 Build 0)  -->
<!DOCTYPE svg PUBLIC "-//W3C//DTD SVG 1.1//EN" "http://www.w3.org/Graphics/SVG/1.1/DTD/svg11.dtd">
<svg version="1.1" xmlns="http://www.w3.org/2000/svg" xmlns:xlink="http://www.w3.org/1999/xlink" x="0px" y="0px" width="413px"
	 height="63px" viewBox="0 0 413 63" enable-background="new 0 0 413 63" xml:space="preserve">
<g id="T_3_" enable-background="new    ">
	<g id="T">
		<g>
			<polygon fill="#0D354E" points="368.86,-0.04 368.86,13.201 383.729,13.201 383.729,62.973 398.091,62.973 398.091,13.201 
				412.96,13.201 412.96,-0.04 			"/>
		</g>
	</g>
</g>
<g id="E_5_" enable-background="new    ">
	<g id="E">
		<g>
			<polygon fill="#0D354E" points="361.845,13.201 361.845,-0.038 339.796,-0.04 317.746,-0.04 317.746,62.973 361.845,62.973 
				361.845,49.732 332.315,49.732 332.315,38.088 356.03,38.088 356.03,24.847 332.315,24.847 332.315,13.201 			"/>
		</g>
	</g>
</g>
<g id="H_1_" enable-background="new    ">
	<g id="H">
		<g>
			<polygon fill="#0D354E" points="293.361,-0.04 293.361,24.845 269.969,24.845 269.969,-0.04 255.607,-0.04 255.607,62.973 
				269.969,62.973 269.969,38.086 293.361,38.086 293.361,62.973 307.724,62.973 307.724,-0.04 			"/>
		</g>
	</g>
</g>
<g id="T_2_" enable-background="new    ">
	<g id="T_1_">
		<g>
			<polygon fill="#0D354E" points="185.449,-0.04 185.449,13.201 200.319,13.201 200.319,62.973 214.679,62.973 214.679,13.201 
				229.549,13.201 229.549,-0.04 			"/>
		</g>
	</g>
</g>
<g id="E_4_" enable-background="new    ">
	<g id="E_1_">
		<g>
			<polygon fill="#0D354E" points="178.434,13.201 178.434,-0.038 156.384,-0.04 134.335,-0.04 134.335,62.973 178.434,62.973 
				178.434,49.732 148.905,49.732 148.905,38.088 172.62,38.088 172.62,24.847 148.905,24.847 148.905,13.201 			"/>
		</g>
	</g>
</g>
<g id="E_3_" enable-background="new    ">
	<g id="E_2_">
		<g>
			<polygon fill="#0D354E" points="125.315,13.201 125.315,-0.038 95.786,-0.038 95.786,-0.04 81.216,-0.04 81.216,62.971 
				95.786,62.971 95.788,62.973 125.315,62.973 125.315,49.732 95.786,49.732 95.786,38.088 119.5,38.088 119.5,24.847 
				95.786,24.847 95.786,13.201 			"/>
		</g>
	</g>
</g>
<g id="M_1_" enable-background="new    ">
	<g id="M">
		<g>
			<polygon fill="#0D354E" points="55.731,-0.04 39.18,31.467 22.629,-0.04 0.034,-0.04 0.034,4.808 10.033,4.808 10.033,9.655 
				3.655,9.655 3.655,14.5 10.033,14.5 10.033,19.348 0.034,19.348 0.034,24.195 10.033,24.195 10.033,29.043 3.655,29.043 
				3.655,33.891 10.033,33.891 10.033,38.735 0.034,38.735 0.034,43.583 10.033,43.583 10.033,48.431 3.655,48.431 3.655,53.278 
				10.033,53.278 10.033,58.123 0.034,58.123 0.034,62.973 22.628,62.973 22.628,29.379 33.321,49.732 45.039,49.732 55.731,29.379 
				55.731,62.973 70.191,62.973 70.191,-0.04 			"/>
		</g>
	</g>
</g>
</svg>
